<svg id="visual" viewBox="0 0 900 600" width="900" height="600" xmlns="http://www.w3.org/2000/svg" xmlns:xlink="http://www.w3.org/1999/xlink" version="1.1"><g stroke-width="1" stroke-linejoin="bevel"><path d="M392 328L364 239L338 293Z" fill="#1171b4" stroke="#1171b4"></path><path d="M364 239L321 225L338 293Z" fill="#097bbe" stroke="#097bbe"></path><path d="M282 426L360 398L338 293Z" fill="#00a6e2" stroke="#00a6e2"></path><path d="M338 293L360 398L392 328Z" fill="#1171b4" stroke="#1171b4"></path><path d="M522 327L487 223L392 328Z" fill="#009bd9" stroke="#009bd9"></path><path d="M392 328L487 223L364 239Z" fill="#01bcf2" stroke="#01bcf2"></path><path d="M364 239L301 112L321 225Z" fill="#205295" stroke="#205295"></path><path d="M527 421L522 327L392 328Z" fill="#1866aa" stroke="#1866aa"></path><path d="M321 225L214 313L338 293Z" fill="#009bd9" stroke="#009bd9"></path><path d="M214 313L282 426L338 293Z" fill="#009bd9" stroke="#009bd9"></path><path d="M487 223L430 102L364 239Z" fill="#009bd9" stroke="#009bd9"></path><path d="M321 225L169 200L214 313Z" fill="#205295" stroke="#205295"></path><path d="M430 102L301 112L364 239Z" fill="#0086c7" stroke="#0086c7"></path><path d="M360 398L527 421L392 328Z" fill="#097bbe" stroke="#097bbe"></path><path d="M386 507L527 421L360 398Z" fill="#009bd9" stroke="#009bd9"></path><path d="M282 426L386 507L360 398Z" fill="#097bbe" stroke="#097bbe"></path><path d="M633 377L608 319L522 327Z" fill="#0091d0" stroke="#0091d0"></path><path d="M522 327L629 237L487 223Z" fill="#0091d0" stroke="#0091d0"></path><path d="M487 223L473 62L430 102Z" fill="#205295" stroke="#205295"></path><path d="M301 112L169 200L321 225Z" fill="#1171b4" stroke="#1171b4"></path><path d="M212 472L273 483L282 426Z" fill="#00b1ea" stroke="#00b1ea"></path><path d="M282 426L273 483L386 507Z" fill="#00b1ea" stroke="#00b1ea"></path><path d="M212 472L282 426L172 434Z" fill="#1171b4" stroke="#1171b4"></path><path d="M628 70L473 62L487 223Z" fill="#1c5c9f" stroke="#1c5c9f"></path><path d="M430 102L380 0L301 112Z" fill="#00b1ea" stroke="#00b1ea"></path><path d="M386 507L537 468L527 421Z" fill="#205295" stroke="#205295"></path><path d="M527 421L633 377L522 327Z" fill="#00a6e2" stroke="#00a6e2"></path><path d="M608 319L629 237L522 327Z" fill="#01bcf2" stroke="#01bcf2"></path><path d="M172 434L282 426L214 313Z" fill="#0091d0" stroke="#0091d0"></path><path d="M264 600L401 600L386 507Z" fill="#00b1ea" stroke="#00b1ea"></path><path d="M68 330L172 434L214 313Z" fill="#097bbe" stroke="#097bbe"></path><path d="M537 468L633 377L527 421Z" fill="#0086c7" stroke="#0086c7"></path><path d="M608 319L701 301L629 237Z" fill="#00a6e2" stroke="#00a6e2"></path><path d="M276 0L193 85L301 112Z" fill="#205295" stroke="#205295"></path><path d="M301 112L193 85L169 200Z" fill="#1171b4" stroke="#1171b4"></path><path d="M473 62L380 0L430 102Z" fill="#1171b4" stroke="#1171b4"></path><path d="M621 0L464 0L473 62Z" fill="#097bbe" stroke="#097bbe"></path><path d="M473 62L464 0L380 0Z" fill="#097bbe" stroke="#097bbe"></path><path d="M380 0L276 0L301 112Z" fill="#1866aa" stroke="#1866aa"></path><path d="M662 480L676 390L633 377Z" fill="#00a6e2" stroke="#00a6e2"></path><path d="M633 377L701 301L608 319Z" fill="#0091d0" stroke="#0091d0"></path><path d="M676 390L701 301L633 377Z" fill="#1866aa" stroke="#1866aa"></path><path d="M629 237L628 70L487 223Z" fill="#097bbe" stroke="#097bbe"></path><path d="M701 301L692 203L629 237Z" fill="#1866aa" stroke="#1866aa"></path><path d="M264 600L386 507L273 483Z" fill="#00a6e2" stroke="#00a6e2"></path><path d="M386 507L500 600L537 468Z" fill="#1c5c9f" stroke="#1c5c9f"></path><path d="M537 468L662 480L633 377Z" fill="#0091d0" stroke="#0091d0"></path><path d="M169 200L68 330L214 313Z" fill="#0086c7" stroke="#0086c7"></path><path d="M62 187L68 330L169 200Z" fill="#00a6e2" stroke="#00a6e2"></path><path d="M686 136L628 70L629 237Z" fill="#1c5c9f" stroke="#1c5c9f"></path><path d="M81 116L169 200L193 85Z" fill="#1c5c9f" stroke="#1c5c9f"></path><path d="M81 116L62 187L169 200Z" fill="#097bbe" stroke="#097bbe"></path><path d="M692 203L686 136L629 237Z" fill="#097bbe" stroke="#097bbe"></path><path d="M831 172L686 136L692 203Z" fill="#0086c7" stroke="#0086c7"></path><path d="M500 600L609 534L537 468Z" fill="#01bcf2" stroke="#01bcf2"></path><path d="M68 330L83 437L172 434Z" fill="#1171b4" stroke="#1171b4"></path><path d="M172 434L87 512L212 472Z" fill="#1c5c9f" stroke="#1c5c9f"></path><path d="M223 600L264 600L273 483Z" fill="#00b1ea" stroke="#00b1ea"></path><path d="M401 600L500 600L386 507Z" fill="#0086c7" stroke="#0086c7"></path><path d="M223 600L273 483L212 472Z" fill="#0091d0" stroke="#0091d0"></path><path d="M609 534L662 480L537 468Z" fill="#009bd9" stroke="#009bd9"></path><path d="M676 390L775 396L701 301Z" fill="#00b1ea" stroke="#00b1ea"></path><path d="M118 0L81 116L193 85Z" fill="#01bcf2" stroke="#01bcf2"></path><path d="M276 0L181 0L193 85Z" fill="#097bbe" stroke="#097bbe"></path><path d="M87 512L223 600L212 472Z" fill="#1c5c9f" stroke="#1c5c9f"></path><path d="M664 0L621 0L628 70Z" fill="#01bcf2" stroke="#01bcf2"></path><path d="M628 70L621 0L473 62Z" fill="#205295" stroke="#205295"></path><path d="M0 525L87 512L83 437Z" fill="#0086c7" stroke="#0086c7"></path><path d="M83 437L87 512L172 434Z" fill="#0086c7" stroke="#0086c7"></path><path d="M0 231L0 296L68 330Z" fill="#097bbe" stroke="#097bbe"></path><path d="M68 330L0 380L83 437Z" fill="#205295" stroke="#205295"></path><path d="M0 231L68 330L62 187Z" fill="#00b1ea" stroke="#00b1ea"></path><path d="M0 71L0 231L62 187Z" fill="#205295" stroke="#205295"></path><path d="M181 0L118 0L193 85Z" fill="#205295" stroke="#205295"></path><path d="M81 116L0 71L62 187Z" fill="#00b1ea" stroke="#00b1ea"></path><path d="M500 600L611 600L609 534Z" fill="#1171b4" stroke="#1171b4"></path><path d="M609 534L661 600L662 480Z" fill="#097bbe" stroke="#097bbe"></path><path d="M0 296L0 380L68 330Z" fill="#00a6e2" stroke="#00a6e2"></path><path d="M686 136L664 0L628 70Z" fill="#0086c7" stroke="#0086c7"></path><path d="M818 539L775 396L662 480Z" fill="#009bd9" stroke="#009bd9"></path><path d="M662 480L775 396L676 390Z" fill="#1171b4" stroke="#1171b4"></path><path d="M701 301L802 285L692 203Z" fill="#01bcf2" stroke="#01bcf2"></path><path d="M686 136L805 0L664 0Z" fill="#0091d0" stroke="#0091d0"></path><path d="M775 396L802 285L701 301Z" fill="#00b1ea" stroke="#00b1ea"></path><path d="M611 600L661 600L609 534Z" fill="#00a6e2" stroke="#00a6e2"></path><path d="M87 512L102 600L223 600Z" fill="#00b1ea" stroke="#00b1ea"></path><path d="M0 600L102 600L87 512Z" fill="#097bbe" stroke="#097bbe"></path><path d="M118 0L0 71L81 116Z" fill="#205295" stroke="#205295"></path><path d="M0 380L0 525L83 437Z" fill="#1c5c9f" stroke="#1c5c9f"></path><path d="M900 196L831 172L802 285Z" fill="#205295" stroke="#205295"></path><path d="M802 285L831 172L692 203Z" fill="#0086c7" stroke="#0086c7"></path><path d="M831 172L824 104L686 136Z" fill="#00b1ea" stroke="#00b1ea"></path><path d="M118 0L0 0L0 71Z" fill="#097bbe" stroke="#097bbe"></path><path d="M661 600L764 600L662 480Z" fill="#205295" stroke="#205295"></path><path d="M900 393L900 301L802 285Z" fill="#00b1ea" stroke="#00b1ea"></path><path d="M0 525L0 600L87 512Z" fill="#0086c7" stroke="#0086c7"></path><path d="M764 600L818 539L662 480Z" fill="#1171b4" stroke="#1171b4"></path><path d="M824 104L805 0L686 136Z" fill="#0086c7" stroke="#0086c7"></path><path d="M900 393L802 285L775 396Z" fill="#1171b4" stroke="#1171b4"></path><path d="M831 172L900 196L824 104Z" fill="#1171b4" stroke="#1171b4"></path><path d="M824 104L900 63L805 0Z" fill="#00a6e2" stroke="#00a6e2"></path><path d="M900 301L900 196L802 285Z" fill="#0086c7" stroke="#0086c7"></path><path d="M900 485L900 393L775 396Z" fill="#0086c7" stroke="#0086c7"></path><path d="M900 600L900 485L818 539Z" fill="#1c5c9f" stroke="#1c5c9f"></path><path d="M818 539L900 485L775 396Z" fill="#1171b4" stroke="#1171b4"></path><path d="M900 196L900 63L824 104Z" fill="#00b1ea" stroke="#00b1ea"></path><path d="M900 63L900 0L805 0Z" fill="#1c5c9f" stroke="#1c5c9f"></path><path d="M764 600L900 600L818 539Z" fill="#00a6e2" stroke="#00a6e2"></path></g></svg>